HIERARCHY
ROOT root
{
	OFFSET 0.000000 0.000000 0.000000
	CHANNELS 6 Xposition Yposition Zposition Zrotation Yrotation Xrotation
	JOINT lhip
	{
		OFFSET 0.058581 -0.082280 -0.017664
		CHANNELS 3 Zrotation Yrotation Xrotation
		JOINT lknee
		{
			OFFSET 0.043451 -0.386469 0.008037
			CHANNELS 3 Zrotation Yrotation Xrotation
			JOINT lankle
			{
				OFFSET -0.014790 -0.426874 -0.037428
				CHANNELS 3 Zrotation Yrotation Xrotation
				JOINT ltoe
				{
					OFFSET 0.041054 -0.060286 0.122042
					CHANNELS 3 Zrotation Yrotation Xrotation
					End Site
					{
						OFFSET 0.000000 0.000000 0.000000
					}
				}
			}
		}
	}
	JOINT rhip
	{
		OFFSET -0.060310 -0.090513 -0.013543
		CHANNELS 3 Zrotation Yrotation Xrotation
		JOINT rknee
		{
			OFFSET -0.043257 -0.383688 -0.004843
			CHANNELS 3 Zrotation Yrotation Xrotation
			JOINT rankle
			{
				OFFSET 0.019056 -0.420046 -0.034562
				CHANNELS 3 Zrotation Yrotation Xrotation
				JOINT rtoe
				{
					OFFSET -0.034840 -0.062106 0.130323
					CHANNELS 3 Zrotation Yrotation Xrotation
					End Site
					{
						OFFSET 0.000000 0.000000 0.000000
					}
				}
			}
		}
	}
	JOINT lowerback
	{
		OFFSET 0.004439 0.124404 -0.038385
		CHANNELS 3 Zrotation Yrotation Xrotation
		JOINT upperback
		{
			OFFSET 0.004488 0.137956 0.026820
			CHANNELS 3 Zrotation Yrotation Xrotation
			JOINT chest
			{
				OFFSET -0.002265 0.056032 0.002855
				CHANNELS 3 Zrotation Yrotation Xrotation
				JOINT lowerneck
				{
					OFFSET -0.013390 0.211636 -0.033468
					CHANNELS 3 Zrotation Yrotation Xrotation
					JOINT upperneck
					{
						OFFSET 0.010113 0.088937 0.050410
						CHANNELS 3 Zrotation Yrotation Xrotation
						End Site
						{
							OFFSET 0.000000 0.000000 0.000000
						}
					}
				}
				JOINT lclavicle
				{
					OFFSET 0.071702 0.114000 -0.018898
					CHANNELS 3 Zrotation Yrotation Xrotation
					JOINT lshoulder
					{
						OFFSET 0.122921 0.045205 -0.019046
						CHANNELS 3 Zrotation Yrotation Xrotation
						JOINT lelbow
						{
							OFFSET 0.255332 -0.015649 -0.022946
							CHANNELS 3 Zrotation Yrotation Xrotation
							JOINT lwrist
							{
								OFFSET 0.265709 0.012698 -0.007375
								CHANNELS 3 Zrotation Yrotation Xrotation
								End Site
								{
									OFFSET 0.000000 0.000000 0.000000
								}
							}
						}
					}
				}
				JOINT rclavicle
				{
					OFFSET -0.082954 0.112472 -0.023707
					CHANNELS 3 Zrotation Yrotation Xrotation
					JOINT rshoulder
					{
						OFFSET -0.113228 0.046853 -0.008472
						CHANNELS 3 Zrotation Yrotation Xrotation
						JOINT relbow
						{
							OFFSET -0.260127 -0.014369 -0.031269
							CHANNELS 3 Zrotation Yrotation Xrotation
							JOINT rwrist
							{
								OFFSET -0.269108 0.006794 -0.006027
								CHANNELS 3 Zrotation Yrotation Xrotation
								End Site
								{
									OFFSET 0.000000 0.000000 0.000000
								}
							}
						}
					}
				}
			}
		}
	}
}
MOTION
Frames: 10
Frame Time: 0.033333
-0.335720 -0.184719 1.012999 -163.658583 1.917490 87.088294 7.661995 -4.556855 -33.961906 -1.878609 11.107204 56.535003 2.039759 7.092695 -7.423586 0.000000 -0.000000 0.000000 7.283127 -9.859028 1.412240 6.540593 -2.817022 7.067737 -0.202301 -8.396112 -13.537169 0.000000 -0.000000 0.000000 3.098504 9.410460 14.622632 -4.938014 -0.999855 -2.250429 -1.396643 0.672736 -2.661112 5.445797 -20.025141 7.008621 7.749819 -5.532290 11.766097 -17.134158 -14.753406 -8.953467 -41.024661 -23.320428 10.161641 14.922339 -51.223235 -0.587876 4.526648 -5.292841 -5.604188 -11.623054 23.664095 -16.174135 -7.993854 36.972523 -25.520857 -15.761613 35.748506 -3.470974 -19.198749 8.679155 18.954323 
-0.339890 -0.149384 1.009738 -165.413411 1.344654 87.010682 6.314470 -5.611081 -36.745568 -3.141059 12.247297 45.434649 2.723542 8.309762 -8.645655 0.000000 -0.000000 0.000000 6.388924 -10.429914 4.773121 6.676119 -0.940230 6.755621 0.263341 -7.643795 -15.097383 0.000000 -0.000000 0.000000 3.339148 10.560008 15.100252 -5.004905 -0.965096 -2.500392 -1.486407 1.793081 -2.229464 5.203970 -19.917137 7.550465 7.498090 -6.034001 11.267651 -18.260187 -13.248475 -8.689161 -41.563215 -20.007938 11.247296 12.926816 -48.841137 1.901205 4.356584 -4.405889 -7.011518 -9.204593 24.230530 -13.796622 -8.836898 35.678664 -25.277348 -14.835520 36.286339 -2.493292 -19.418070 9.098214 17.795159 
-0.344349 -0.114422 1.004897 -167.179420 1.045829 87.384329 5.404080 -6.688422 -38.355508 -4.651437 10.710728 31.445850 3.030792 7.938904 -7.585072 0.000000 -0.000000 0.000000 5.609262 -10.696415 7.636855 6.846856 0.891271 6.384768 0.432530 -6.938482 -16.434990 0.000000 -0.000000 0.000000 3.625800 11.339340 14.750572 -4.947586 -0.673549 -1.931868 -1.611745 2.778952 -2.130431 5.429370 -19.132489 7.267888 7.216231 -6.376987 10.728503 -19.573707 -11.644365 -8.602984 -42.264445 -16.672645 12.736874 11.977853 -44.881893 3.152980 5.601168 -3.562059 -7.692695 -6.200642 24.744430 -11.173289 -9.916008 34.897559 -24.807574 -13.330109 35.490163 -0.816802 -19.658382 9.704530 17.572332 
-0.349490 -0.078788 0.998248 -169.190104 1.044490 88.274652 4.654864 -6.844956 -39.550853 -4.690813 6.677581 18.527781 2.365832 5.918012 -5.722259 0.000000 -0.000000 0.000000 4.747728 -11.363393 9.362994 7.190517 2.257055 7.340547 0.651783 -5.424993 -17.758810 0.000000 -0.000000 0.000000 4.287144 11.872708 14.039877 -5.146802 -0.406153 -1.337743 -1.959519 3.694461 -2.718470 5.525256 -18.451342 7.696268 7.235161 -6.938772 10.202523 -20.645817 -9.987771 -8.037941 -42.644765 -12.878169 13.133468 10.490701 -40.639985 4.720145 4.217330 -3.304377 -7.719296 -3.438550 25.350558 -8.377860 -9.182861 34.456117 -24.385007 -11.497912 34.478137 0.891320 -19.895652 9.940234 18.855593 
-0.355878 -0.041685 0.990365 -171.406991 1.316621 89.203880 3.944493 -5.714773 -41.247984 -4.309796 2.582145 12.002609 2.622445 4.984204 -4.793981 0.000000 -0.000000 0.000000 3.937166 -11.810840 10.689928 7.471135 3.688563 9.038819 0.910404 -3.775364 -18.701610 0.000000 -0.000000 0.000000 5.085254 12.211840 13.204656 -5.233658 -0.058795 -0.638197 -2.314997 4.472235 -3.364728 5.527125 -18.002518 7.770956 6.961176 -6.812860 10.079366 -22.011756 -8.529422 -7.274767 -42.908390 -8.353974 13.273391 10.467807 -36.599725 6.016314 4.193358 -2.707225 -7.300163 -0.418029 26.035800 -5.882485 -7.652560 34.149546 -23.458580 -9.309032 33.559832 2.795616 -20.019530 10.457897 19.582539 
-0.362926 -0.001720 0.982773 -173.989341 1.313191 89.654404 3.902132 -5.582199 -42.330147 -4.586096 1.726821 11.905615 2.689194 5.184507 -4.989879 0.000000 -0.000000 0.000000 2.803419 -11.307960 12.383372 7.521348 5.253951 11.142370 1.367256 -3.007363 -19.116611 0.000000 -0.000000 0.000000 5.379308 12.622770 12.747331 -5.163449 0.346142 -0.246582 -2.613609 5.115024 -3.621492 5.635909 -17.529655 6.996763 6.532246 -6.439235 10.721092 -23.740443 -7.080881 -6.427591 -42.917452 -3.830763 12.715489 10.665050 -32.200396 6.709670 5.133002 -2.609419 -6.157327 2.944522 26.589823 -3.750006 -5.495781 33.288642 -20.956039 -6.296823 33.126977 5.614344 -19.766336 10.849816 18.861735 
-0.370504 0.041703 0.976168 -176.544103 0.926243 89.935988 4.276158 -7.051782 -42.295596 -5.367119 3.608806 16.047656 2.603079 5.657818 -5.560070 0.000000 -0.000000 0.000000 1.512597 -9.861602 14.001906 7.361331 6.579210 13.784719 2.245893 -2.885485 -18.413134 0.000000 -0.000000 0.000000 4.693146 13.310482 12.181190 -4.745555 0.669786 0.241918 -2.743300 5.607531 -4.107469 6.188403 -17.084629 6.625215 6.067637 -6.406308 10.602856 -25.188745 -4.908963 -5.182927 -43.322818 -0.162260 11.549672 10.807285 -27.825069 7.012004 5.255266 -2.048851 -4.235653 6.743956 26.072668 -1.462086 -2.179715 32.703625 -17.628210 -3.313294 32.790539 9.062759 -19.972101 10.863368 19.275285 
-0.378524 0.087881 0.969922 -178.308709 0.443559 90.787534 4.049038 -9.692171 -41.057555 -4.913951 5.804838 17.889464 3.428199 3.873399 -4.493277 0.000000 -0.000000 0.000000 0.784199 -7.939389 14.669367 6.920428 7.252776 16.978216 3.248589 -3.506542 -16.928430 0.000000 -0.000000 0.000000 3.093803 13.859112 10.035112 -3.738743 0.877361 1.340551 -2.714428 5.675106 -4.883009 7.459711 -15.874017 6.115682 5.232719 -6.834259 11.180621 -25.773962 -1.884201 -3.879867 -45.792932 1.601860 9.672280 12.409702 -21.489145 6.969564 4.589324 -2.740698 -1.937916 10.120878 24.413934 0.617633 3.977023 32.958439 -12.478214 -2.149486 30.718945 13.222104 -19.762763 11.647595 19.461599 
-0.387945 0.135108 0.966328 -178.652497 -0.041793 91.653915 3.075422 -10.607281 -40.335208 -5.371324 3.184762 19.373962 5.387728 5.780043 0.589191 0.000000 -0.000000 0.000000 0.189517 -5.903812 14.601353 7.079025 6.799705 21.249703 4.094716 -4.446878 -11.825476 0.000000 -0.000000 0.000000 1.109887 13.482314 7.652077 -2.084569 0.645391 1.683060 -2.493608 5.492970 -4.357503 8.849720 -14.911228 3.560888 4.476430 -7.374946 13.521735 -26.697646 0.912263 -2.508751 -48.191965 2.281499 7.376107 14.454898 -14.555846 6.914912 3.502834 -3.417040 -2.403258 14.236862 21.813212 1.914357 12.251117 32.241019 -5.359839 -4.945791 28.692386 17.746510 -16.367422 13.238954 19.987469 
-0.397207 0.182006 0.966743 -178.242570 -1.035621 91.733508 2.270268 -11.401767 -40.123120 -7.344671 5.785322 23.785565 7.906680 7.353680 1.234450 0.000000 -0.000000 0.000000 -1.496085 -4.481191 13.121060 8.316722 4.649753 28.328363 5.739304 -5.155621 -3.030542 0.000000 -0.000000 0.000000 -1.174501 13.467361 6.891646 -0.684617 -0.049839 1.250471 -1.852578 4.701367 -3.318163 10.194923 -14.536859 1.464482 4.403025 -8.046266 14.749516 -28.914913 2.654649 -1.203055 -48.952444 2.308398 5.974826 16.370452 -10.064510 2.170130 6.271843 -2.227192 0.279778 20.193609 18.090489 3.482352 16.266233 28.972791 -0.185360 -2.844542 27.354739 21.552454 -15.139503 14.167053 22.436203 
